<?xml version="1.0" encoding="utf-8"?>
<!-- Svg Vector Icons : http://www.onlinewebfonts.com/icon -->
<!DOCTYPE svg PUBLIC "-//W3C//DTD SVG 1.1//EN" "http://www.w3.org/Graphics/SVG/1.1/DTD/svg11.dtd">
<svg version="1.1" xmlns="http://www.w3.org/2000/svg" xmlns:xlink="http://www.w3.org/1999/xlink" x="0px" y="0px" viewBox="0 0 1000 1000" enable-background="new 0 0 1000 1000" xml:space="preserve">
<metadata> Svg Vector Icons : http://www.onlinewebfonts.com/icon </metadata>
<g><g transform="translate(0.000000,511.000000) scale(0.100000,-0.100000)"><path d="M1058.9,2836.4c-27-19.3-57.9-61.7-69.5-90.7C937.3,2612.6,109.6-328,103.8-409C86.4-575,92.2-578.8,968.2-825.8c420.6-119.6,795-216.1,833.5-216.1c115.8,0,175.6,73.3,235.4,289.4c27,100.3,54,194.9,57.9,208.4c5.8,15.4,69.5-46.3,152.4-144.7c436.1-517.1,1846.6-1771.3,2153.4-1914.1c146.6-67.5,370.5-69.5,511.3-5.8c115.8,54,212.2,140.8,262.4,241.2l38.6,73.3l75.2-59.8c140.8-111.9,281.7-162.1,447.7-162.1c125.4,0,165.9,9.6,274,63.7c142.8,69.5,229.6,162.1,275.9,295.2l32.8,88.8h137c331.9,1.9,598.2,223.8,642.5,536.4c13.5,90.7,15.4,92.6,102.3,113.8c223.8,57.9,391.7,202.6,463.1,397.5l40.5,108.1l108,11.6c61.7,5.8,121.6,13.5,137,15.4c15.4,5.8,36.7-21.2,52.1-69.5c34.7-94.6,92.6-158.2,162.1-173.7c34.7-7.7,302.9,59.8,841.3,212.2c715.9,200.7,795,227.7,841.3,279.8c36.7,38.6,54,79.1,54,121.6c0,36.7-200.7,771.8-445.7,1636.2C9132,2257.6,8998.9,2703.3,8970,2734.2c-79.1,84.9-115.8,79.1-951.3-158.2c-434.1-123.5-804.6-237.3-823.9-252.8c-17.4-17.4-42.5-54-54-84.9c-19.3-46.3-46.3-61.8-154.4-94.6l-133.1-40.5l-229.6,106.1c-634.8,289.4-1051.6,411-1480,428.4c-229.6,9.6-268.2,5.8-443.8-40.5c-106.1-28.9-258.6-81-337.7-117.7c-138.9-61.7-158.2-65.6-434.1-77.2c-362.8-13.5-816.2-46.3-951.3-65.6c-92.6-13.5-106.1-11.6-135.1,27c-19.3,23.2-50.2,52.1-71.4,61.8C2704.8,2460.2,1221,2875,1161.2,2875C1132.2,2875,1084,2857.7,1058.9,2836.4z M1861.6,2265.3c287.5-81,528.7-154.4,536.4-160.2c15.4-13.5-5.8-88.8-434.1-1603.4c-144.7-503.6-270.1-953.2-281.7-997.6c-13.5-46.3-32.8-83-46.3-83c-25.1,0-1061.2,289.4-1070.9,299.1c-3.9,3.9,160.1,596.2,364.7,1315.9c202.6,719.7,374.3,1323.6,380.1,1342.9c3.9,17.4,13.5,32.8,19.3,32.8C1334.8,2411.9,1574.1,2346.3,1861.6,2265.3z M8699.8,2273c9.6-34.7,181.4-638.7,380.1-1342.9c200.7-702.4,357-1283.1,351.2-1288.9c-21.2-21.2-1065.1-310.7-1078.6-299.1c-15.4,13.5-767.9,2670.5-758.3,2680.1C7600,2028,8640,2329,8669,2332.8C8676.7,2334.8,8690.2,2305.8,8699.8,2273z M5558.6,2165c285.6-73.3,536.4-167.9,897.2-335.7c160.1-75.2,314.5-140.8,343.5-144.7c30.9-5.8,133.1,13.5,237.3,42.5c100.3,30.9,185.2,50.2,187.2,46.3c23.2-27,631-2224.8,623.2-2247.9c-7.7-17.4-40.5-27-104.2-27c-86.8,0-96.5,5.8-140.8,71.4c-27,42.5-492,436.1-1153.9,974.4C5197.7,1563,5319.3,1489.6,5055,1397c-94.6-32.8-193-52.1-291.4-54c-92.6-3.9-162.1-15.4-181.4-32.8c-17.4-13.5-84.9-96.5-148.6-181.4c-343.5-453.4-613.6-576.9-739-333.8c-77.2,150.5,21.2,509.4,221.9,804.6c208.4,304.9,532.5,522.9,912.7,609.7C5008.6,2249.9,5288.4,2232.5,5558.6,2165z M3659.9,1945c-275.9-374.3-399.4-727.4-372.4-1067c19.3-248.9,104.2-418.7,264.3-528.7c301-204.5,706.2-52.1,1117.2,422.6l125.4,144.7l154.4,34.7c86.8,17.4,183.3,38.6,218,44.4c57.9,11.6,117.7-32.8,1094-829.7l1032.3-841.3l11.6-86.8c15.4-92.6-19.3-162.1-119.6-241.2c-110-86.8-135.1-73.3-652.2,362.7c-600.1,503.6-557.6,472.7-648.3,472.7S5703.3-241.2,5684-328c-23.2-104.2,27-164,436.1-505.5c540.3-455.4,573.1-484.3,596.2-544.1c25.1-67.5-17.4-162.1-108-243.1c-102.3-88.8-173.7-79.1-310.7,38.6c-61.7,54-306.8,256.6-544.1,453.4c-416.8,345.4-434.1,357-517.1,357c-69.5,0-96.5-11.6-142.8-56c-63.7-65.6-77.2-175.6-27-248.9c17.4-23.2,192.9-175.6,391.7-339.6c409.1-335.7,486.3-412.9,486.3-492c0-71.4-102.3-210.3-165.9-225.7c-77.2-19.3-137,21.2-519.1,353.1c-191,164-405.2,351.2-478.5,412.9c-110,96.5-140.9,113.9-204.5,113.9c-135.1,0-245.1-142.8-206.5-266.3c7.7-19.3,115.8-138.9,243.1-266.3c266.3-262.4,279.8-297.1,171.7-422.6c-102.3-115.8-133.1-102.3-548,231.5C3237.3-1173.1,2461.7-409,2291.9-63.6l-38.6,79.1l266.3,935.8c233.5,825.8,270.1,937.8,306.8,947.4c44.4,11.6,540.3,65.6,706.2,75.2c57.9,3.9,117.7,7.7,133.1,9.6C3685,1987.5,3685,1977.8,3659.9,1945z"/></g></g>
</svg>